# xmcd
#
# Track frame offsets:
#	150
#	15320
#	29167
#	42430
#	55387
#	67970
#	81122
#	95357
#	105760
#	121600
#	137092
#	149085
#	165365
#	175922
#
# Disc length: 2568 seconds
#
# Revision: 0
# Processed by: cddbd v1.4PL0 Copyright (c) Steve Scherf et al.
# Submitted via: EasyCDDAExtractor 5.0.5.1
#
DISCID=b20a060e
DTITLE=Derek Dillman - Rollin' Forward
DYEAR=1999
DGENRE=Bluegrass
TTITLE0=Black Jack
TTITLE1=Farewell Blues
TTITLE2=Double Banjo Blues
TTITLE3=Pinnacle Mountain Breakdown
TTITLE4=Goin' Back To Old Kentucky
TTITLE5=Sweet Dixie
TTITLE6=Old Folks
TTITLE7=Dickenson County Breakdown
TTITLE8=Leisure Time
TTITLE9=Brown County Stomp
TTITLE10=Steel Guitar Rag
TTITLE11=Bluegrass Breakdown
TTITLE12=Stoney Point
TTITLE13=Amazing Grace
EXTD=
EXTT0=
EXTT1=
EXTT2=
EXTT3=
EXTT4=
EXTT5=
EXTT6=
EXTT7=
EXTT8=
EXTT9=
EXTT10=
EXTT11=
EXTT12=
EXTT13=
PLAYORDER=
